<?xml version="1.0" encoding="utf-8"?>
<!-- Generator: Adobe Illustrator 25.0.0, SVG Export Plug-In . SVG Version: 6.00 Build 0)  -->
<svg version="1.1" id="Calque_1" xmlns="http://www.w3.org/2000/svg" xmlns:xlink="http://www.w3.org/1999/xlink" x="0px" y="0px"
	 viewBox="0 0 291.4 144.3" style="enable-background:new 0 0 291.4 144.3;" xml:space="preserve">
<style type="text/css">
	.st0{fill-rule:evenodd;clip-rule:evenodd;fill:#6E7379;}
	.st1{fill-rule:evenodd;clip-rule:evenodd;fill:#EA0029;}
	.st2{fill-rule:evenodd;clip-rule:evenodd;fill:#444A51;}
	.st3{fill:#EA0029;}
	.st4{fill:#444A51;}
</style>
<g>
	<g>
		<g>
			<g>
				<g>
					<polygon id="XMLID_4_" class="st0" points="1,0.6 39.2,0.6 39.2,14.8 15.1,14.8 15.1,38.9 1,38.9 					"/>
					<polygon id="XMLID_3_" class="st0" points="70.4,46 84.6,46 84.6,84.2 46.3,84.2 46.3,70.1 70.4,70.1 					"/>
					<polygon id="XMLID_2_" class="st1" points="70.4,24.8 47.8,47.4 37.8,37.4 60.4,14.8 46.3,14.8 46.3,0.6 84.6,0.6 84.6,38.9 
						70.4,38.9 					"/>
					<polygon id="XMLID_1_" class="st2" points="1,84.2 1,46 15.1,46 15.1,70.1 39.2,70.1 39.2,84.2 					"/>
				</g>
			</g>
			<g>
				<g>
					<g>
						<polygon class="st3" points="120.6,84.1 134.4,53.4 148.4,84.1 						"/>
						<polygon class="st3" points="134.4,18 134.4,18 134.4,18 162.5,84.1 177.9,84.1 141.4,0.5 127.9,0.5 91.3,84.1 106.2,84.1 
													"/>
					</g>
					<path class="st3" d="M200.6,52.5c11.6-3.3,19.8-11.6,19.8-25.3V27c0-7.3-2.5-13.5-6.9-18c-5.4-5.2-13.6-8.3-24.1-8.3h-40.6
						l5.9,13.4h33.5c10.9,0,17.3,4.9,17.3,13.8v0.2c0,8.5-6.7,14-17.2,14h-21.5l5.7,13h12.7l20.5,29.1h17.4L200.6,52.5z"/>
				</g>
				<g>
					<path class="st3" d="M253.1,0.8h37l-5.4,11.9h-31.5c-2.9,0-5.4,1-7.4,3c-2,2-3,4.5-3,7.4v2.9c0,2.9,1,5.4,3,7.4
						c2,2,4.5,3,7.4,3h2.4h11.4h0.6c6.1,0,11.4,2.2,15.8,6.6c4.4,4.4,6.6,9.7,6.6,15.8v2.8c0,6.1-2.2,11.4-6.6,15.8
						c-4.4,4.4-9.7,6.6-15.8,6.6h-36.4l-7.9-11.9h44.2c2.9,0,5.4-1,7.4-3c2-2,3-4.5,3-7.4v-2.8c0-2.9-1-5.4-3-7.4c-2-2-4.5-3-7.4-3
						h-0.6h-11.4h-2.4c-6.1,0-11.4-2.2-15.8-6.6c-4.4-4.4-6.6-9.7-6.6-15.8v-2.9c0-6.1,2.2-11.4,6.6-15.8C241.8,3,247,0.8,253.1,0.8
						z"/>
				</g>
			</g>
		</g>
	</g>
	<g>
		<path class="st4" d="M4.3,95.8h1.6L9.2,111h-2l-0.6-3h-3L3,111H1L4.3,95.8z M6.3,106.4L5.8,104c-0.3-1.6-0.5-3.4-0.7-5.3
			c-0.1,0.9-0.2,1.8-0.4,2.8c-0.1,0.9-0.3,1.9-0.5,3l-0.4,2H6.3z"/>
		<path class="st4" d="M16.9,101v1.8c-0.5-0.3-0.9-0.5-1.4-0.5c-0.2,0-0.3,0-0.5,0.1c-0.1,0.1-0.3,0.1-0.4,0.2
			c-0.1,0.1-0.2,0.2-0.3,0.4c-0.1,0.1-0.1,0.3-0.1,0.4c0,0.5,0.4,1.1,1.3,1.7c0.4,0.3,0.7,0.5,0.9,0.8c0.2,0.2,0.4,0.5,0.5,0.7
			c0.3,0.4,0.4,0.9,0.4,1.6c0,0.9-0.3,1.6-0.8,2.2c-0.5,0.5-1.2,0.8-2.1,0.8c-0.5,0-1.1-0.2-1.7-0.5v-1.8c0.5,0.4,1.1,0.6,1.5,0.6
			c0.9,0,1.3-0.4,1.3-1.3c0-0.3-0.1-0.6-0.2-0.8c-0.1-0.1-0.2-0.2-0.3-0.4c-0.2-0.1-0.4-0.3-0.6-0.5c-0.8-0.6-1.3-1.1-1.6-1.6
			c-0.3-0.4-0.4-1-0.4-1.6c0-0.8,0.3-1.5,0.8-2c0.5-0.5,1.2-0.8,2-0.8C15.8,100.5,16.4,100.7,16.9,101z"/>
		<path class="st4" d="M25.5,101v1.8c-0.5-0.3-0.9-0.5-1.4-0.5c-0.2,0-0.3,0-0.5,0.1c-0.1,0.1-0.3,0.1-0.4,0.2
			c-0.1,0.1-0.2,0.2-0.3,0.4c-0.1,0.1-0.1,0.3-0.1,0.4c0,0.5,0.4,1.1,1.3,1.7c0.4,0.3,0.7,0.5,0.9,0.8c0.2,0.2,0.4,0.5,0.5,0.7
			c0.3,0.4,0.4,0.9,0.4,1.6c0,0.9-0.3,1.6-0.8,2.2c-0.5,0.5-1.2,0.8-2.1,0.8c-0.5,0-1.1-0.2-1.7-0.5v-1.8c0.5,0.4,1.1,0.6,1.5,0.6
			c0.9,0,1.3-0.4,1.3-1.3c0-0.3-0.1-0.6-0.2-0.8c-0.1-0.1-0.2-0.2-0.3-0.4c-0.2-0.1-0.4-0.3-0.6-0.5c-0.8-0.6-1.3-1.1-1.6-1.6
			c-0.3-0.4-0.4-1-0.4-1.6c0-0.8,0.3-1.5,0.8-2c0.5-0.5,1.2-0.8,2-0.8C24.4,100.5,25,100.7,25.5,101z"/>
		<path class="st4" d="M30.2,100.8h1.9v6.8c0,0.6,0.1,1.1,0.3,1.3c0.2,0.3,0.5,0.4,0.9,0.4c0.4,0,0.7-0.1,0.9-0.4
			c0.2-0.2,0.3-0.7,0.3-1.3v-0.8v-6.1h1.9v6.1c0,1.4-0.1,2.4-0.3,2.9c-0.4,0.9-1.4,1.4-2.7,1.4c-1.1,0-1.9-0.3-2.3-0.8
			c-0.5-0.6-0.7-1.5-0.7-2.8V100.8z"/>
		<path class="st4" d="M41.1,100.8H43v1.3c0.3-0.5,0.6-0.9,1-1.1c0.3-0.2,0.7-0.3,1.3-0.4v2c-0.1,0-0.2,0-0.3,0
			c-0.7,0-1.2,0.2-1.4,0.5c-0.3,0.3-0.4,0.9-0.4,1.8v6.2h-1.9V100.8z"/>
		<path class="st4" d="M55.1,100.8V111h-1.9v-1.3c-0.3,0.6-0.5,0.9-0.8,1.2c-0.3,0.2-0.6,0.3-1.1,0.3c-0.8,0-1.5-0.4-1.9-1.3
			c-0.4-0.9-0.6-2.2-0.6-4.1c0-1.8,0.2-3.1,0.6-3.9c0.4-0.8,1-1.2,1.9-1.2c0.8,0,1.4,0.4,1.9,1.3v-1.2H55.1z M50.9,105.8
			c0,1.3,0.1,2.3,0.3,2.8c0.2,0.5,0.5,0.8,1,0.8c0.4,0,0.7-0.3,0.9-0.8c0.2-0.6,0.3-1.5,0.3-2.7c0-1.2-0.1-2.1-0.3-2.7
			c-0.2-0.6-0.5-0.8-0.9-0.8c-0.4,0-0.8,0.3-1,0.8C50.9,103.6,50.9,104.5,50.9,105.8z"/>
		<path class="st4" d="M59.9,100.8h1.9v1.2c0.5-0.9,1.2-1.3,2.1-1.3c0.8,0,1.4,0.3,1.8,1c0.2,0.4,0.3,1.1,0.3,2.1v7.3h-1.9l0-6.8
			c0-0.7-0.1-1.2-0.2-1.5c-0.2-0.3-0.4-0.4-0.8-0.4c-0.2,0-0.4,0-0.5,0.1c-0.1,0.1-0.3,0.2-0.4,0.4c-0.1,0.2-0.2,0.4-0.2,0.7
			c0,0.3-0.1,0.6-0.1,1v6.6h-1.9V100.8z"/>
		<path class="st4" d="M75,101v1.9c-0.3-0.3-0.6-0.5-0.9-0.5c-1,0-1.6,1.1-1.6,3.4c0,2.4,0.5,3.6,1.5,3.6c0.3,0,0.6-0.1,1-0.4v1.8
			c-0.5,0.3-1,0.4-1.5,0.4c-2,0-3-1.7-3-5.2c0-1.8,0.2-3.2,0.7-4.1c0.5-0.9,1.3-1.3,2.3-1.3C74,100.6,74.5,100.7,75,101z"/>
		<path class="st4" d="M83.2,107.5h1.8c-0.1,2.4-1.1,3.6-3,3.6c-0.5,0-1-0.1-1.4-0.3c-0.4-0.2-0.7-0.5-1-0.9c-0.3-0.4-0.4-1-0.6-1.6
			c-0.1-0.7-0.2-1.4-0.2-2.3c0-1.8,0.3-3.1,0.8-4c0.5-0.9,1.3-1.3,2.3-1.3c2,0,3.1,1.8,3.1,5.4v0.2h-4.3c0,2.2,0.4,3.3,1.3,3.3
			C82.8,109.5,83.2,108.9,83.2,107.5z M83.1,104.9c-0.1-1.1-0.2-1.8-0.4-2.1c-0.2-0.4-0.4-0.6-0.8-0.6c-0.4,0-0.7,0.2-0.8,0.6
			c-0.2,0.3-0.3,1-0.4,2.1H83.1z"/>
		<path class="st4" d="M96.3,95.8H99c1.1,0,1.9,0.3,2.5,0.8c0.7,0.7,1,1.7,1,3.2c0,1.1-0.2,2-0.5,2.6c-0.4,0.7-0.9,1.1-1.6,1.2
			l2.8,7.4h-2.1l-2.8-7.5v7.5h-2V95.8z M98.4,102.5c0.8,0,1.4-0.2,1.7-0.6c0.3-0.4,0.5-1,0.5-1.9c0-0.5,0-0.9-0.1-1.2
			c-0.1-0.3-0.2-0.6-0.3-0.8c-0.1-0.2-0.3-0.4-0.6-0.5c-0.2-0.1-0.5-0.1-0.8-0.1h-0.3V102.5z"/>
		<path class="st4" d="M111.1,107.5h1.8c-0.1,2.4-1.1,3.6-3,3.6c-0.5,0-1-0.1-1.4-0.3c-0.4-0.2-0.7-0.5-1-0.9
			c-0.3-0.4-0.4-1-0.6-1.6c-0.1-0.7-0.2-1.4-0.2-2.3c0-1.8,0.3-3.1,0.8-4c0.5-0.9,1.3-1.3,2.3-1.3c2,0,3.1,1.8,3.1,5.4v0.2h-4.3
			c0,2.2,0.4,3.3,1.3,3.3C110.7,109.5,111.1,108.9,111.1,107.5z M111,104.9c-0.1-1.1-0.2-1.8-0.4-2.1c-0.2-0.4-0.4-0.6-0.8-0.6
			c-0.4,0-0.7,0.2-0.8,0.6c-0.2,0.3-0.3,1-0.4,2.1H111z M111.9,96.5l-2,2.7l-1-0.6l1.7-3L111.9,96.5z"/>
		<path class="st4" d="M123.1,100.8V111h-1.9v-1.3c-0.3,0.6-0.5,0.9-0.8,1.2c-0.3,0.2-0.6,0.3-1.1,0.3c-0.8,0-1.5-0.4-1.9-1.3
			c-0.4-0.9-0.6-2.2-0.6-4.1c0-1.8,0.2-3.1,0.6-3.9c0.4-0.8,1-1.2,1.9-1.2c0.8,0,1.4,0.4,1.9,1.3v-1.2H123.1z M118.8,105.8
			c0,1.3,0.1,2.3,0.3,2.8c0.2,0.5,0.5,0.8,1,0.8c0.4,0,0.7-0.3,0.9-0.8c0.2-0.6,0.3-1.5,0.3-2.7c0-1.2-0.1-2.1-0.3-2.7
			c-0.2-0.6-0.5-0.8-0.9-0.8c-0.4,0-0.8,0.3-1,0.8C118.9,103.6,118.8,104.5,118.8,105.8z"/>
		<path class="st4" d="M131.8,101v1.8c-0.5-0.3-0.9-0.5-1.4-0.5c-0.2,0-0.3,0-0.5,0.1c-0.1,0.1-0.3,0.1-0.4,0.2
			c-0.1,0.1-0.2,0.2-0.3,0.4c-0.1,0.1-0.1,0.3-0.1,0.4c0,0.5,0.4,1.1,1.3,1.7c0.4,0.3,0.7,0.5,0.9,0.8c0.2,0.2,0.4,0.5,0.5,0.7
			c0.3,0.4,0.4,0.9,0.4,1.6c0,0.9-0.3,1.6-0.8,2.2c-0.5,0.5-1.2,0.8-2.1,0.8c-0.5,0-1.1-0.2-1.7-0.5v-1.8c0.5,0.4,1.1,0.6,1.5,0.6
			c0.9,0,1.3-0.4,1.3-1.3c0-0.3-0.1-0.6-0.2-0.8c-0.1-0.1-0.2-0.2-0.3-0.4c-0.2-0.1-0.4-0.3-0.6-0.5c-0.8-0.6-1.3-1.1-1.6-1.6
			c-0.3-0.4-0.4-1-0.4-1.6c0-0.8,0.3-1.5,0.8-2c0.5-0.5,1.2-0.8,2-0.8C130.7,100.5,131.3,100.7,131.8,101z"/>
		<path class="st4" d="M140.5,101v1.8c-0.5-0.3-0.9-0.5-1.4-0.5c-0.2,0-0.3,0-0.5,0.1c-0.1,0.1-0.3,0.1-0.4,0.2
			c-0.1,0.1-0.2,0.2-0.3,0.4c-0.1,0.1-0.1,0.3-0.1,0.4c0,0.5,0.4,1.1,1.3,1.7c0.4,0.3,0.7,0.5,0.9,0.8c0.2,0.2,0.4,0.5,0.5,0.7
			c0.3,0.4,0.4,0.9,0.4,1.6c0,0.9-0.3,1.6-0.8,2.2c-0.5,0.5-1.2,0.8-2.1,0.8c-0.5,0-1.1-0.2-1.7-0.5v-1.8c0.5,0.4,1.1,0.6,1.5,0.6
			c0.9,0,1.3-0.4,1.3-1.3c0-0.3-0.1-0.6-0.2-0.8c-0.1-0.1-0.2-0.2-0.3-0.4c-0.2-0.1-0.4-0.3-0.6-0.5c-0.8-0.6-1.3-1.1-1.6-1.6
			c-0.3-0.4-0.4-1-0.4-1.6c0-0.8,0.3-1.5,0.8-2c0.5-0.5,1.2-0.8,2-0.8C139.4,100.5,139.9,100.7,140.5,101z"/>
		<path class="st4" d="M145.1,100.8h1.9v6.8c0,0.6,0.1,1.1,0.3,1.3c0.2,0.3,0.5,0.4,0.9,0.4c0.4,0,0.7-0.1,0.9-0.4
			c0.2-0.2,0.3-0.7,0.3-1.3v-0.8v-6.1h1.9v6.1c0,1.4-0.1,2.4-0.3,2.9c-0.4,0.9-1.4,1.4-2.7,1.4c-1.1,0-1.9-0.3-2.3-0.8
			c-0.5-0.6-0.7-1.5-0.7-2.8V100.8z"/>
		<path class="st4" d="M156,100.8h1.9v1.3c0.3-0.5,0.6-0.9,1-1.1c0.3-0.2,0.7-0.3,1.3-0.4v2c-0.1,0-0.2,0-0.3,0
			c-0.7,0-1.2,0.2-1.4,0.5c-0.3,0.3-0.4,0.9-0.4,1.8v6.2H156V100.8z"/>
		<path class="st4" d="M170,100.8V111h-1.9v-1.3c-0.3,0.6-0.5,0.9-0.8,1.2c-0.3,0.2-0.6,0.3-1.1,0.3c-0.8,0-1.5-0.4-1.9-1.3
			c-0.4-0.9-0.6-2.2-0.6-4.1c0-1.8,0.2-3.1,0.6-3.9c0.4-0.8,1-1.2,1.9-1.2c0.8,0,1.4,0.4,1.9,1.3v-1.2H170z M165.8,105.8
			c0,1.3,0.1,2.3,0.3,2.8c0.2,0.5,0.5,0.8,1,0.8c0.4,0,0.7-0.3,0.9-0.8c0.2-0.6,0.3-1.5,0.3-2.7c0-1.2-0.1-2.1-0.3-2.7
			c-0.2-0.6-0.5-0.8-0.9-0.8c-0.4,0-0.8,0.3-1,0.8C165.9,103.6,165.8,104.5,165.8,105.8z"/>
		<path class="st4" d="M174.9,100.8h1.9v1.2c0.5-0.9,1.2-1.3,2.1-1.3c0.8,0,1.4,0.3,1.8,1c0.2,0.4,0.3,1.1,0.3,2.1v7.3H179l0-6.8
			c0-0.7-0.1-1.2-0.2-1.5c-0.2-0.3-0.4-0.4-0.8-0.4c-0.2,0-0.4,0-0.5,0.1c-0.1,0.1-0.3,0.2-0.4,0.4c-0.1,0.2-0.2,0.4-0.2,0.7
			c0,0.3-0.1,0.6-0.1,1v6.6h-1.9V100.8z"/>
		<path class="st4" d="M189.9,101v1.9c-0.3-0.3-0.6-0.5-0.9-0.5c-1,0-1.6,1.1-1.6,3.4c0,2.4,0.5,3.6,1.5,3.6c0.3,0,0.6-0.1,1-0.4
			v1.8c-0.5,0.3-1,0.4-1.5,0.4c-2,0-3-1.7-3-5.2c0-1.8,0.2-3.2,0.7-4.1c0.5-0.9,1.3-1.3,2.3-1.3C188.9,100.6,189.4,100.7,189.9,101z
			"/>
		<path class="st4" d="M198.1,107.5h1.8c-0.1,2.4-1.1,3.6-3,3.6c-0.5,0-1-0.1-1.4-0.3s-0.7-0.5-1-0.9c-0.3-0.4-0.4-1-0.6-1.6
			c-0.1-0.7-0.2-1.4-0.2-2.3c0-1.8,0.3-3.1,0.8-4c0.5-0.9,1.3-1.3,2.3-1.3c2,0,3.1,1.8,3.1,5.4v0.2h-4.3c0,2.2,0.4,3.3,1.3,3.3
			C197.7,109.5,198.1,108.9,198.1,107.5z M198,104.9c-0.1-1.1-0.2-1.8-0.4-2.1c-0.2-0.4-0.4-0.6-0.8-0.6c-0.4,0-0.7,0.2-0.8,0.6
			c-0.2,0.3-0.3,1-0.4,2.1H198z"/>
		<path class="st4" d="M216.3,96.1v2c-0.6-0.4-1.2-0.7-1.7-0.7c-0.5,0-1,0.2-1.3,0.6c-0.3,0.4-0.5,0.8-0.5,1.4c0,0.5,0.1,1,0.4,1.4
			c0.1,0.2,0.3,0.5,0.6,0.8c0.3,0.3,0.7,0.7,1.1,1.2c0.8,0.8,1.4,1.6,1.7,2.2c0.3,0.6,0.5,1.3,0.5,2.2c0,1.2-0.3,2.1-1,2.9
			c-0.7,0.7-1.5,1.1-2.6,1.1c-0.9,0-1.6-0.2-2.2-0.7v-2c0.7,0.5,1.4,0.8,2,0.8c0.6,0,1-0.2,1.3-0.6c0.3-0.4,0.5-0.9,0.5-1.5
			c0-0.6-0.1-1-0.4-1.5c-0.1-0.2-0.3-0.5-0.5-0.7c-0.2-0.3-0.5-0.6-0.8-0.9c-0.5-0.5-0.9-1-1.3-1.4c-0.3-0.4-0.6-0.7-0.8-1
			c-0.3-0.6-0.5-1.3-0.5-2.2c0-1.2,0.3-2.1,0.9-2.8c0.6-0.7,1.5-1.1,2.5-1.1C215,95.6,215.7,95.7,216.3,96.1z"/>
		<path class="st4" d="M227.4,106c0,3.4-1.1,5.2-3.2,5.2c-2.1,0-3.2-1.8-3.2-5.3c0-3.5,1.1-5.3,3.2-5.3c0.6,0,1,0.1,1.4,0.3
			c0.4,0.2,0.7,0.5,1,1c0.3,0.4,0.5,1,0.6,1.7C227.3,104.2,227.4,105,227.4,106z M225.4,105.9c0-1.3-0.1-2.3-0.3-2.8
			c-0.2-0.5-0.5-0.8-0.9-0.8c-0.4,0-0.8,0.3-1,0.8c-0.2,0.5-0.3,1.4-0.3,2.7c0,1.3,0.1,2.2,0.3,2.7c0.2,0.5,0.5,0.8,1,0.8
			c0.4,0,0.8-0.3,0.9-0.8C225.3,108.1,225.4,107.2,225.4,105.9z"/>
		<path class="st4" d="M231.8,94.2h1.9V111h-1.9V94.2z"/>
		<path class="st4" d="M238.5,100.8h1.9v6.8c0,0.6,0.1,1.1,0.3,1.3c0.2,0.3,0.5,0.4,0.9,0.4c0.4,0,0.7-0.1,0.9-0.4
			c0.2-0.2,0.3-0.7,0.3-1.3v-0.8v-6.1h1.9v6.1c0,1.4-0.1,2.4-0.3,2.9c-0.4,0.9-1.4,1.4-2.7,1.4c-1.1,0-1.9-0.3-2.3-0.8
			c-0.5-0.6-0.7-1.5-0.7-2.8V100.8z"/>
		<path class="st4" d="M249.6,97.9h1.9v2.9h1v1.5h-1v8.7h-1.9v-8.7h-1v-1.5h1V97.9z"/>
		<path class="st4" d="M257.5,96.4c0.3,0,0.6,0.1,0.9,0.4c0.2,0.2,0.4,0.5,0.4,0.9c0,0.4-0.1,0.7-0.4,0.9c-0.3,0.2-0.6,0.4-0.9,0.4
			c-0.4,0-0.7-0.1-0.9-0.4c-0.2-0.2-0.4-0.5-0.4-0.9c0-0.3,0.1-0.6,0.4-0.9C256.8,96.6,257.1,96.4,257.5,96.4z M256.6,100.8h1.9V111
			h-1.9V100.8z"/>
		<path class="st4" d="M269.3,106c0,3.4-1.1,5.2-3.2,5.2s-3.2-1.8-3.2-5.3c0-3.5,1.1-5.3,3.2-5.3c0.6,0,1,0.1,1.4,0.3
			c0.4,0.2,0.7,0.5,1,1c0.3,0.4,0.5,1,0.6,1.7C269.2,104.2,269.3,105,269.3,106z M267.3,105.9c0-1.3-0.1-2.3-0.3-2.8
			c-0.2-0.5-0.5-0.8-0.9-0.8c-0.4,0-0.8,0.3-1,0.8c-0.2,0.5-0.3,1.4-0.3,2.7c0,1.3,0.1,2.2,0.3,2.7c0.2,0.5,0.5,0.8,1,0.8
			c0.4,0,0.8-0.3,0.9-0.8C267.3,108.1,267.3,107.2,267.3,105.9z"/>
		<path class="st4" d="M273.7,100.8h1.9v1.2c0.5-0.9,1.2-1.3,2.1-1.3c0.8,0,1.4,0.3,1.8,1c0.2,0.4,0.3,1.1,0.3,2.1v7.3h-1.9l0-6.8
			c0-0.7-0.1-1.2-0.2-1.5c-0.2-0.3-0.4-0.4-0.8-0.4c-0.2,0-0.4,0-0.5,0.1c-0.1,0.1-0.3,0.2-0.4,0.4c-0.1,0.2-0.2,0.4-0.2,0.7
			c0,0.3-0.1,0.6-0.1,1v6.6h-1.9V100.8z"/>
		<path class="st4" d="M288.5,101v1.8c-0.5-0.3-0.9-0.5-1.4-0.5c-0.2,0-0.3,0-0.5,0.1c-0.1,0.1-0.3,0.1-0.4,0.2
			c-0.1,0.1-0.2,0.2-0.3,0.4c-0.1,0.1-0.1,0.3-0.1,0.4c0,0.5,0.4,1.1,1.3,1.7c0.4,0.3,0.6,0.5,0.9,0.8c0.2,0.2,0.4,0.5,0.5,0.7
			c0.3,0.4,0.4,0.9,0.4,1.6c0,0.9-0.3,1.6-0.8,2.2c-0.5,0.5-1.2,0.8-2.1,0.8c-0.5,0-1.1-0.2-1.7-0.5v-1.8c0.5,0.4,1.1,0.6,1.5,0.6
			c0.9,0,1.3-0.4,1.3-1.3c0-0.3-0.1-0.6-0.2-0.8c-0.1-0.1-0.2-0.2-0.3-0.4c-0.2-0.1-0.4-0.3-0.6-0.5c-0.8-0.6-1.3-1.1-1.6-1.6
			c-0.3-0.4-0.4-1-0.4-1.6c0-0.8,0.3-1.5,0.8-2c0.5-0.5,1.2-0.8,2-0.8C287.4,100.5,288,100.7,288.5,101z"/>
	</g>
	<g>
		<g>
			<g>
				<path class="st3" d="M1.2,121.2h3.2c1.3,0,2.3,0.3,2.9,0.9c0.8,0.8,1.2,2,1.2,3.7c0,1.3-0.2,2.3-0.6,3.1c-0.4,0.8-1,1.3-1.8,1.4
					l3.3,8.7H6.9l-3.3-8.7v8.7H1.2V121.2z M3.6,129c0.9,0,1.6-0.2,2-0.6c0.4-0.4,0.6-1.2,0.6-2.2c0-0.6,0-1-0.1-1.4
					c-0.1-0.4-0.2-0.7-0.4-1c-0.2-0.2-0.4-0.4-0.7-0.5c-0.3-0.1-0.6-0.2-1-0.2H3.6V129z"/>
				<path class="st3" d="M15.3,134.9h2.1c-0.2,2.8-1.3,4.2-3.5,4.2c-0.6,0-1.2-0.1-1.6-0.4c-0.5-0.2-0.8-0.6-1.1-1.1
					c-0.3-0.5-0.5-1.1-0.7-1.9c-0.1-0.8-0.2-1.7-0.2-2.7c0-2.1,0.3-3.7,0.9-4.7c0.6-1,1.5-1.5,2.7-1.5c2.4,0,3.6,2.1,3.6,6.3v0.3h-5
					c0,2.6,0.5,3.8,1.5,3.8C14.9,137.3,15.3,136.5,15.3,134.9z M15.2,131.8c-0.1-1.3-0.2-2.1-0.4-2.5c-0.2-0.4-0.5-0.7-1-0.7
					c-0.5,0-0.8,0.2-1,0.7c-0.2,0.4-0.3,1.2-0.4,2.5H15.2z"/>
				<path class="st3" d="M19.4,143.9V127h2.2v1.5c0.3-0.7,0.6-1.1,0.9-1.4c0.3-0.3,0.7-0.4,1.3-0.4c1,0,1.7,0.5,2.2,1.5
					c0.5,1,0.7,2.6,0.7,4.8c0,2.1-0.2,3.6-0.7,4.6c-0.5,1-1.2,1.4-2.2,1.4c-0.5,0-0.9-0.1-1.2-0.3c-0.2-0.1-0.3-0.3-0.5-0.5
					c-0.2-0.2-0.3-0.4-0.5-0.7v6.2H19.4z M24.4,133.1c0-1.6-0.1-2.7-0.3-3.3c-0.2-0.6-0.6-0.9-1.1-0.9c-0.5,0-0.9,0.3-1.1,1
					c-0.2,0.6-0.3,1.7-0.3,3.2s0.1,2.6,0.3,3.2c0.2,0.6,0.6,1,1.1,1c0.5,0,0.9-0.3,1.1-0.9C24.3,135.7,24.4,134.6,24.4,133.1z"/>
				<path class="st3" d="M28.8,127H31v1.5c0.4-0.6,0.7-1.1,1.1-1.3c0.4-0.3,0.9-0.4,1.5-0.4v2.3c-0.2,0-0.3,0-0.4,0
					c-0.8,0-1.4,0.2-1.7,0.6c-0.3,0.4-0.5,1.1-0.5,2.1v7.2h-2.2V127z"/>
				<path class="st3" d="M39.8,134.9h2.1c-0.2,2.8-1.3,4.2-3.5,4.2c-0.6,0-1.2-0.1-1.6-0.4c-0.5-0.2-0.8-0.6-1.1-1.1
					c-0.3-0.5-0.5-1.1-0.7-1.9c-0.1-0.8-0.2-1.7-0.2-2.7c0-2.1,0.3-3.7,0.9-4.7c0.6-1,1.5-1.5,2.7-1.5c2.4,0,3.6,2.1,3.6,6.3v0.3h-5
					c0,2.6,0.5,3.8,1.5,3.8C39.3,137.3,39.8,136.5,39.8,134.9z M39.6,131.8c-0.1-1.3-0.2-2.1-0.4-2.5c-0.2-0.4-0.5-0.7-1-0.7
					c-0.5,0-0.8,0.2-1,0.7c-0.2,0.4-0.3,1.2-0.4,2.5H39.6z M40.7,122.1l-2.3,3.2l-1.2-0.7l1.9-3.5L40.7,122.1z"/>
				<path class="st3" d="M48.5,127.3v2.1c-0.5-0.4-1.1-0.6-1.7-0.6c-0.2,0-0.4,0-0.6,0.1c-0.2,0.1-0.3,0.2-0.4,0.3
					c-0.1,0.1-0.2,0.3-0.3,0.4c-0.1,0.2-0.1,0.3-0.1,0.5c0,0.6,0.5,1.2,1.5,2c0.4,0.3,0.8,0.6,1,0.9s0.5,0.5,0.6,0.8
					c0.3,0.5,0.5,1.1,0.5,1.8c0,1.1-0.3,1.9-0.9,2.6c-0.6,0.6-1.4,1-2.5,1c-0.6,0-1.3-0.2-1.9-0.6v-2.1c0.6,0.5,1.2,0.7,1.8,0.7
					c1,0,1.5-0.5,1.5-1.5c0-0.4-0.1-0.7-0.3-1c-0.1-0.1-0.2-0.3-0.4-0.5c-0.2-0.2-0.4-0.4-0.7-0.6c-0.9-0.7-1.6-1.3-1.9-1.8
					c-0.3-0.5-0.5-1.1-0.5-1.8c0-1,0.3-1.7,0.9-2.4c0.6-0.6,1.4-0.9,2.3-0.9C47.2,126.7,47.8,126.9,48.5,127.3z"/>
				<path class="st3" d="M55.4,134.9h2.1c-0.2,2.8-1.3,4.2-3.5,4.2c-0.6,0-1.2-0.1-1.6-0.4c-0.5-0.2-0.8-0.6-1.1-1.1
					c-0.3-0.5-0.5-1.1-0.7-1.9c-0.1-0.8-0.2-1.7-0.2-2.7c0-2.1,0.3-3.7,0.9-4.7c0.6-1,1.5-1.5,2.7-1.5c2.4,0,3.6,2.1,3.6,6.3v0.3h-5
					c0,2.6,0.5,3.8,1.5,3.8C54.9,137.3,55.4,136.5,55.4,134.9z M55.3,131.8c-0.1-1.3-0.2-2.1-0.4-2.5c-0.2-0.4-0.5-0.7-1-0.7
					c-0.5,0-0.8,0.2-1,0.7c-0.2,0.4-0.3,1.2-0.4,2.5H55.3z"/>
				<path class="st3" d="M59.5,127h2.2v1.4c0.6-1,1.4-1.6,2.4-1.6c1,0,1.7,0.4,2.1,1.1c0.2,0.4,0.3,1.3,0.3,2.5v8.5h-2.2l0-8
					c0-0.8-0.1-1.4-0.3-1.7c-0.2-0.3-0.5-0.5-1-0.5c-0.3,0-0.5,0-0.6,0.1c-0.2,0.1-0.3,0.2-0.4,0.4c-0.1,0.2-0.2,0.5-0.2,0.8
					c-0.1,0.3-0.1,0.7-0.1,1.2v7.7h-2.2V127z"/>
				<path class="st3" d="M69.3,123.7h2.2v3.3h1.2v1.8h-1.2V139h-2.2v-10.2h-1.2V127h1.2V123.7z"/>
				<path class="st3" d="M81.1,127V139h-2.2v-1.5c-0.3,0.7-0.6,1.1-0.9,1.3c-0.3,0.2-0.7,0.4-1.2,0.4c-1,0-1.7-0.5-2.2-1.5
					s-0.7-2.6-0.7-4.8c0-2.1,0.2-3.6,0.7-4.6c0.5-1,1.2-1.5,2.2-1.5c0.9,0,1.6,0.5,2.2,1.5V127H81.1z M76.2,132.9
					c0,1.6,0.1,2.7,0.3,3.3c0.2,0.6,0.6,0.9,1.1,0.9c0.5,0,0.8-0.3,1.1-1c0.2-0.7,0.3-1.8,0.3-3.2c0-1.4-0.1-2.5-0.3-3.2
					c-0.2-0.6-0.6-1-1.1-1c-0.5,0-0.9,0.3-1.1,0.9C76.3,130.3,76.2,131.4,76.2,132.9z"/>
				<path class="st3" d="M83.7,127h2.2v1.4c0.6-1,1.4-1.6,2.4-1.6c1,0,1.7,0.4,2.1,1.1c0.2,0.4,0.3,1.3,0.3,2.5v8.5h-2.2l0-8
					c0-0.8-0.1-1.4-0.3-1.7c-0.2-0.3-0.5-0.5-1-0.5c-0.3,0-0.5,0-0.6,0.1c-0.2,0.1-0.3,0.2-0.4,0.4c-0.1,0.2-0.2,0.5-0.2,0.8
					c-0.1,0.3-0.1,0.7-0.1,1.2v7.7h-2.2V127z"/>
				<path class="st3" d="M93.5,123.7h2.2v3.3h1.2v1.8h-1.2V139h-2.2v-10.2h-1.2V127h1.2V123.7z"/>
				<path class="st3" d="M108,134.9h2.1c-0.2,2.8-1.3,4.2-3.5,4.2c-0.6,0-1.2-0.1-1.6-0.4c-0.5-0.2-0.8-0.6-1.1-1.1
					c-0.3-0.5-0.5-1.1-0.7-1.9c-0.1-0.8-0.2-1.7-0.2-2.7c0-2.1,0.3-3.7,0.9-4.7c0.6-1,1.5-1.5,2.7-1.5c2.4,0,3.6,2.1,3.6,6.3v0.3h-5
					c0,2.6,0.5,3.8,1.5,3.8C107.5,137.3,108,136.5,108,134.9z M107.8,131.8c-0.1-1.3-0.2-2.1-0.4-2.5c-0.2-0.4-0.5-0.7-1-0.7
					c-0.5,0-0.8,0.2-1,0.7c-0.2,0.4-0.3,1.2-0.4,2.5H107.8z"/>
				<path class="st3" d="M110.7,127h2.6l1,2.3c0.1,0.3,0.2,0.6,0.3,0.8c0.1,0.3,0.2,0.6,0.3,0.9c0.1-0.3,0.1-0.6,0.2-0.8
					c0.1-0.3,0.2-0.5,0.3-0.8l0.2-0.3l0.9-2.1h2.3l-2.7,5.6l3.3,6.3h-2.6l-1-2.3c-0.5-1.1-0.8-1.9-0.9-2.6c-0.1,0.6-0.3,1.4-0.7,2.4
					l-1.1,2.5h-2.3l3-6.3L110.7,127z"/>
				<path class="st3" d="M125.3,127.3v2.2c-0.3-0.4-0.7-0.6-1.1-0.6c-1.2,0-1.8,1.3-1.8,3.9c0,2.8,0.6,4.2,1.8,4.2
					c0.3,0,0.7-0.2,1.1-0.5v2.1c-0.6,0.3-1.2,0.5-1.8,0.5c-2.4,0-3.6-2-3.6-6c0-2.1,0.3-3.7,0.9-4.7c0.6-1,1.5-1.5,2.7-1.5
					C124.2,126.8,124.8,127,125.3,127.3z"/>
				<path class="st3" d="M127.2,119.4h2.2V139h-2.2V119.4z"/>
				<path class="st3" d="M131.9,127h2.2v8c0,0.7,0.1,1.3,0.3,1.6c0.2,0.3,0.5,0.5,1,0.5c0.5,0,0.8-0.1,1-0.4
					c0.2-0.3,0.3-0.8,0.3-1.5v-1V127h2.2v7.1c0,1.7-0.1,2.8-0.4,3.3c-0.5,1.1-1.6,1.6-3.2,1.6c-1.3,0-2.2-0.3-2.7-1
					c-0.5-0.7-0.8-1.7-0.8-3.3V127z"/>
				<path class="st3" d="M146.1,127.3v2.1c-0.5-0.4-1.1-0.6-1.7-0.6c-0.2,0-0.4,0-0.6,0.1c-0.2,0.1-0.3,0.2-0.4,0.3
					c-0.1,0.1-0.2,0.3-0.3,0.4c-0.1,0.2-0.1,0.3-0.1,0.5c0,0.6,0.5,1.2,1.5,2c0.4,0.3,0.8,0.6,1,0.9s0.5,0.5,0.6,0.8
					c0.3,0.5,0.5,1.1,0.5,1.8c0,1.1-0.3,1.9-0.9,2.6c-0.6,0.6-1.4,1-2.5,1c-0.6,0-1.3-0.2-1.9-0.6v-2.1c0.6,0.5,1.2,0.7,1.8,0.7
					c1,0,1.5-0.5,1.5-1.5c0-0.4-0.1-0.7-0.3-1c-0.1-0.1-0.2-0.3-0.4-0.5c-0.2-0.2-0.4-0.4-0.7-0.6c-0.9-0.7-1.6-1.3-1.9-1.8
					c-0.3-0.5-0.5-1.1-0.5-1.8c0-1,0.3-1.7,0.9-2.4c0.6-0.6,1.4-0.9,2.3-0.9C144.8,126.7,145.5,126.9,146.1,127.3z"/>
				<path class="st3" d="M149.5,122c0.4,0,0.7,0.1,1,0.4c0.3,0.3,0.4,0.6,0.4,1c0,0.4-0.1,0.8-0.4,1.1c-0.3,0.3-0.6,0.4-1.1,0.4
					s-0.8-0.1-1.1-0.4c-0.3-0.3-0.4-0.6-0.4-1.1c0-0.4,0.1-0.7,0.4-1C148.7,122.1,149.1,122,149.5,122z M148.4,127h2.2V139h-2.2V127
					z"/>
				<path class="st3" d="M152.3,127h1.1v-4.2c0-1.4,0.2-2.3,0.6-2.9c0.4-0.6,1.1-0.8,2.1-0.8c0.4,0,0.9,0.1,1.5,0.3v2.3
					c-0.4-0.2-0.7-0.3-0.9-0.3c-0.4,0-0.6,0.1-0.8,0.3c-0.2,0.2-0.2,0.6-0.2,1.1l0,0.9v3.2h1.9v1.8h-1.9V139h-2.2v-10.2h-1.1V127z"
					/>
				<path class="st3" d="M222.1,134.9h2.1c-0.2,2.8-1.3,4.2-3.5,4.2c-0.6,0-1.2-0.1-1.6-0.4c-0.5-0.2-0.8-0.6-1.1-1.1
					c-0.3-0.5-0.5-1.1-0.7-1.9c-0.1-0.8-0.2-1.7-0.2-2.7c0-2.1,0.3-3.7,0.9-4.7c0.6-1,1.5-1.5,2.7-1.5c2.4,0,3.6,2.1,3.6,6.3v0.3h-5
					c0,2.6,0.5,3.8,1.5,3.8C221.7,137.3,222.1,136.5,222.1,134.9z M222,131.8c-0.1-1.3-0.2-2.1-0.4-2.5c-0.2-0.4-0.5-0.7-1-0.7
					c-0.5,0-0.8,0.2-1,0.7c-0.2,0.4-0.3,1.2-0.4,2.5H222z"/>
				<path class="st3" d="M226.2,127h2.2v1.4c0.6-1,1.4-1.6,2.4-1.6c1,0,1.7,0.4,2.1,1.1c0.2,0.4,0.3,1.3,0.3,2.5v8.5h-2.2l0-8
					c0-0.8-0.1-1.4-0.3-1.7c-0.2-0.3-0.5-0.5-1-0.5c-0.3,0-0.5,0-0.6,0.1c-0.2,0.1-0.3,0.2-0.4,0.4c-0.1,0.2-0.2,0.5-0.2,0.8
					s-0.1,0.7-0.1,1.2v7.7h-2.2V127z"/>
				<path class="st3" d="M239.4,121.2h7.8v2.1h-2.7V139h-2.4v-15.7h-2.8V121.2z"/>
				<path class="st3" d="M247.7,127h2.2v8c0,0.7,0.1,1.3,0.3,1.6c0.2,0.3,0.5,0.5,1,0.5c0.5,0,0.8-0.1,1-0.4
					c0.2-0.3,0.3-0.8,0.3-1.5v-1V127h2.2v7.1c0,1.7-0.1,2.8-0.4,3.3c-0.5,1.1-1.6,1.6-3.2,1.6c-1.3,0-2.2-0.3-2.7-1
					c-0.5-0.7-0.8-1.7-0.8-3.3V127z"/>
				<path class="st3" d="M257.3,127h2.2v1.4c0.6-1,1.4-1.6,2.4-1.6c1,0,1.7,0.4,2.1,1.1c0.2,0.4,0.3,1.3,0.3,2.5v8.5h-2.2l0-8
					c0-0.8-0.1-1.4-0.3-1.7c-0.2-0.3-0.5-0.5-1-0.5c-0.3,0-0.5,0-0.6,0.1c-0.2,0.1-0.3,0.2-0.4,0.4c-0.1,0.2-0.2,0.5-0.2,0.8
					c0,0.3-0.1,0.7-0.1,1.2v7.7h-2.2V127z"/>
				<path class="st3" d="M267.9,122c0.4,0,0.7,0.1,1,0.4c0.3,0.3,0.4,0.6,0.4,1c0,0.4-0.1,0.8-0.4,1.1c-0.3,0.3-0.6,0.4-1.1,0.4
					c-0.4,0-0.8-0.1-1.1-0.4c-0.3-0.3-0.4-0.6-0.4-1.1c0-0.4,0.1-0.7,0.4-1C267.1,122.1,267.5,122,267.9,122z M266.8,127h2.2V139
					h-2.2V127z"/>
				<path class="st3" d="M276.1,127.3v2.1c-0.5-0.4-1.1-0.6-1.7-0.6c-0.2,0-0.4,0-0.6,0.1c-0.2,0.1-0.3,0.2-0.4,0.3
					c-0.1,0.1-0.2,0.3-0.3,0.4c-0.1,0.2-0.1,0.3-0.1,0.5c0,0.6,0.5,1.2,1.5,2c0.4,0.3,0.8,0.6,1,0.9c0.3,0.3,0.5,0.5,0.6,0.8
					c0.3,0.5,0.5,1.1,0.5,1.8c0,1.1-0.3,1.9-0.9,2.6c-0.6,0.6-1.4,1-2.5,1c-0.6,0-1.3-0.2-1.9-0.6v-2.1c0.6,0.5,1.2,0.7,1.8,0.7
					c1,0,1.5-0.5,1.5-1.5c0-0.4-0.1-0.7-0.3-1c-0.1-0.1-0.2-0.3-0.4-0.5c-0.2-0.2-0.4-0.4-0.7-0.6c-0.9-0.7-1.6-1.3-1.9-1.8
					c-0.3-0.5-0.5-1.1-0.5-1.8c0-1,0.3-1.7,0.9-2.4c0.6-0.6,1.4-0.9,2.3-0.9C274.9,126.7,275.5,126.9,276.1,127.3z"/>
				<path class="st3" d="M279.5,122c0.4,0,0.7,0.1,1,0.4c0.3,0.3,0.4,0.6,0.4,1c0,0.4-0.1,0.8-0.4,1.1c-0.3,0.3-0.6,0.4-1.1,0.4
					c-0.4,0-0.8-0.1-1.1-0.4c-0.3-0.3-0.4-0.6-0.4-1.1c0-0.4,0.1-0.7,0.4-1C278.8,122.1,279.1,122,279.5,122z M278.5,127h2.2V139
					h-2.2V127z"/>
				<path class="st3" d="M287.8,134.9h2.1c-0.2,2.8-1.3,4.2-3.5,4.2c-0.6,0-1.2-0.1-1.6-0.4c-0.5-0.2-0.8-0.6-1.1-1.1
					c-0.3-0.5-0.5-1.1-0.7-1.9c-0.1-0.8-0.2-1.7-0.2-2.7c0-2.1,0.3-3.7,0.9-4.7c0.6-1,1.5-1.5,2.7-1.5c2.4,0,3.6,2.1,3.6,6.3v0.3h-5
					c0,2.6,0.5,3.8,1.5,3.8C287.3,137.3,287.8,136.5,287.8,134.9z M287.7,131.8c-0.1-1.3-0.2-2.1-0.4-2.5c-0.2-0.4-0.5-0.7-1-0.7
					c-0.5,0-0.8,0.2-1,0.7c-0.2,0.4-0.3,1.2-0.4,2.5H287.7z"/>
			</g>
		</g>
		<g>
			<path class="st3" d="M176.1,118.3l5,20.7h-5.7l-0.6-3.6h-4.3L170,139h-5.7l5-20.7H176.1z M172.6,122.5l-1.5,8.8h3L172.6,122.5
				L172.6,122.5z"/>
			<path class="st3" d="M194.4,134.1c-0.1,1-0.5,1.9-0.9,2.6c-0.5,0.8-1.1,1.4-2,1.8c-0.9,0.5-2.1,0.7-3.5,0.7
				c-1.5,0-2.7-0.2-3.6-0.6c-0.9-0.4-1.6-1-2-1.7c-0.4-0.7-0.7-1.6-0.9-2.6c-0.1-1-0.2-2.1-0.2-3.2c0-1,0.1-2,0.2-3
				c0.1-1,0.4-1.9,0.9-2.6c0.5-0.8,1.1-1.4,2-1.9c0.9-0.5,2.1-0.7,3.5-0.7c1.5,0,2.7,0.2,3.6,0.7c0.9,0.4,1.6,1,2,1.8
				c0.4,0.8,0.7,1.6,0.9,2.6c0.1,1,0.2,2.1,0.2,3.2C194.7,132.2,194.6,133.2,194.4,134.1z M186.6,133.6c0,0.6,0.1,1.1,0.2,1.5
				c0.1,0.4,0.3,0.6,0.5,0.8c0.2,0.1,0.4,0.2,0.7,0.2c0.3,0,0.5-0.1,0.7-0.2c0.2-0.1,0.3-0.4,0.5-0.8c0.1-0.4,0.2-0.9,0.2-1.5
				s0.1-1.4,0.1-2.4c0-1,0-1.8-0.1-2.4c0-0.6-0.1-1.1-0.2-1.5c-0.1-0.4-0.3-0.6-0.5-0.8c-0.2-0.1-0.4-0.2-0.7-0.2
				c-0.3,0-0.5,0.1-0.7,0.2c-0.2,0.1-0.3,0.4-0.5,0.8c-0.1,0.4-0.2,0.9-0.2,1.5c0,0.6-0.1,1.5-0.1,2.4
				C186.5,132.1,186.6,132.9,186.6,133.6z"/>
			<path class="st3" d="M201.3,123.3v1.9h0.1c0.7-1.5,1.9-2.3,3.8-2.3c0.6,0,1.1,0.1,1.6,0.2c0.5,0.1,0.9,0.4,1.3,0.7
				c0.4,0.3,0.7,0.8,0.9,1.3c0.2,0.5,0.3,1.2,0.3,2.1V139h-5.2v-10.4c0-0.7-0.1-1.1-0.3-1.4c-0.2-0.3-0.5-0.4-1-0.4
				c-0.5,0-0.8,0.1-1,0.4c-0.2,0.3-0.3,0.8-0.3,1.4V139h-5.2v-15.7H201.3z"/>
		</g>
	</g>
</g>
</svg>
